HIERARCHY
ROOT joint_0
{
	OFFSET 0.000000 0.000000 0.000000
	CHANNELS 6 Xposition Yposition Zposition Zrotation Yrotation Xrotation 
	JOINT joint_1
	{
		OFFSET 11.612000 -0.419000 106.198000
		CHANNELS 3 Zrotation Yrotation Xrotation
		JOINT joint_2
		{
			OFFSET -1.708000 -1.022000 97.564090
			CHANNELS 3 Zrotation Yrotation Xrotation
			JOINT joint_3
			{
				OFFSET -4.121000 -1.538000 97.375000
				CHANNELS 3 Zrotation Yrotation Xrotation
				JOINT joint_4
				{
					OFFSET 5.442000 -2.123000 132.795900
					CHANNELS 3 Zrotation Yrotation Xrotation
					JOINT joint_5
					{
						OFFSET 21.935000 0.195000 82.975100
						CHANNELS 3 Zrotation Yrotation Xrotation
						End Site
						{
							OFFSET 0.000000 0.000000 0.000000
						}
					}
				}
				JOINT joint_6
				{
					OFFSET 4.262000 -30.048000 73.899900
					CHANNELS 3 Zrotation Yrotation Xrotation
					JOINT joint_7
					{
						OFFSET 9.731000 -136.810010 -21.963010
						CHANNELS 3 Zrotation Yrotation Xrotation
						JOINT joint_8
						{
							OFFSET 33.360000 -35.709000 -267.597900
							CHANNELS 3 Zrotation Yrotation Xrotation
							JOINT joint_9
							{
								OFFSET 36.156000 -29.759000 -240.558040
								CHANNELS 3 Zrotation Yrotation Xrotation
								End Site
								{
									OFFSET 0.000000 0.000000 0.000000
								}
							}
						}
					}
				}
				JOINT joint_10
				{
					OFFSET 2.027000 27.734000 74.914920
					CHANNELS 3 Zrotation Yrotation Xrotation
					JOINT joint_11
					{
						OFFSET -5.183000 136.784000 -23.604980
						CHANNELS 3 Zrotation Yrotation Xrotation
						JOINT joint_12
						{
							OFFSET 29.806000 37.229000 -267.809940
							CHANNELS 3 Zrotation Yrotation Xrotation
							JOINT joint_13
							{
								OFFSET 36.890000 46.524990 -237.772030
								CHANNELS 3 Zrotation Yrotation Xrotation
								End Site
								{
									OFFSET 0.000000 0.000000 0.000000
								}
							}
						}
					}
				}
			}
		}
	}
	JOINT joint_14
	{
		OFFSET -7.290000 -102.873990 -124.314940
		CHANNELS 3 Zrotation Yrotation Xrotation
		JOINT joint_15
		{
			OFFSET -15.466000 -19.909010 -438.533020
			CHANNELS 3 Zrotation Yrotation Xrotation
			JOINT joint_16
			{
				OFFSET -26.899000 -18.922000 -464.797000
				CHANNELS 3 Zrotation Yrotation Xrotation
				JOINT joint_17
				{
					OFFSET 179.329000 -12.011000 -84.174000
					CHANNELS 3 Zrotation Yrotation Xrotation
					End Site
					{
						OFFSET 0.000000 0.000000 0.000000
					}
				}
			}
		}
	}
	JOINT joint_18
	{
		OFFSET -6.225000 101.546000 -125.479980
		CHANNELS 3 Zrotation Yrotation Xrotation
		JOINT joint_19
		{
			OFFSET -13.973000 7.996000 -438.963010
			CHANNELS 3 Zrotation Yrotation Xrotation
			JOINT joint_20
			{
				OFFSET -44.294000 5.716000 -463.813970
				CHANNELS 3 Zrotation Yrotation Xrotation
				JOINT joint_21
				{
					OFFSET 178.505000 -4.689000 -85.139000
					CHANNELS 3 Zrotation Yrotation Xrotation
					End Site
					{
						OFFSET 0.000000 0.000000 0.000000
					}
				}
			}
		}
	}
}
MOTION
Frames: 9
Frame Time: 0.016667
21.303000 -12.224000 1149.540040 -3.184034 3.175350 0.838527 0.570909 4.382248 0.351790 0.454688 -0.871312 -0.053456 0.480470 0.819863 -0.022960 0.112835 3.641938 -0.446416 0.000000 0.000000 0.000000 1.195351 -2.275341 -0.625193 0.137346 -2.144904 -1.228441 0.780313 -4.839926 1.253750 0.000000 0.000000 0.000000 -1.149826 -2.187288 -0.150389 -0.687038 -2.141538 -0.947977 -0.920996 -3.297534 -1.922387 0.000000 0.000000 0.000000 -0.475433 -1.188309 -2.044241 -0.864678 5.167352 1.217717 -0.687301 2.231298 -0.169605 0.000000 0.000000 0.000000 0.523146 -3.002902 0.917605 0.697023 4.775732 -0.040125 0.637096 4.023589 0.404760 0.000000 0.000000 0.000000 
22.886000 -11.574000 1149.848020 -3.146191 3.221647 0.800595 0.586945 4.515870 0.393536 0.465584 -0.898711 -0.059181 0.492472 0.848068 -0.022692 0.105013 3.670108 -0.419565 0.000000 0.000000 0.000000 1.215722 -2.391629 -0.550430 0.161848 -2.265149 -1.198695 0.734905 -4.553896 1.187859 0.000000 0.000000 0.000000 -1.172814 -2.232036 -0.148868 -0.690363 -2.182645 -0.937805 -0.906690 -3.253720 -1.881831 0.000000 0.000000 0.000000 -0.473894 -1.237612 -2.037172 -0.869746 5.300509 1.201671 -0.694391 2.355768 -0.164449 0.000000 0.000000 0.000000 0.535780 -3.128761 0.870919 0.713719 5.051442 0.033775 0.656195 4.006251 0.413226 0.000000 0.000000 0.000000 
24.499000 -10.866000 1150.110960 -3.109006 3.259999 0.778412 0.593514 4.659251 0.408251 0.467104 -0.930559 -0.060607 0.494963 0.881583 -0.023170 0.096374 3.672884 -0.388923 0.000000 0.000000 0.000000 1.241816 -2.519674 -0.431997 0.185138 -2.402266 -1.212213 0.668347 -4.123402 1.095537 0.000000 0.000000 0.000000 -1.197593 -2.264926 -0.163504 -0.687596 -2.209020 -0.906229 -0.886521 -3.188029 -1.829892 0.000000 0.000000 0.000000 -0.475981 -1.294069 -2.040175 -0.880108 5.471286 1.168714 -0.704919 2.438877 -0.163613 0.000000 0.000000 0.000000 0.557281 -3.222221 0.787319 0.736470 5.283580 0.130604 0.684475 4.014057 0.426692 0.000000 0.000000 0.000000 
26.172000 -10.136000 1150.390010 -3.064270 3.282672 0.774721 0.591069 4.803991 0.388635 0.460221 -0.964167 -0.060218 0.488902 0.915347 -0.024672 0.084630 3.672912 -0.346389 0.000000 0.000000 0.000000 1.270399 -2.622861 -0.316353 0.206013 -2.511520 -1.197360 0.594233 -3.711265 0.936845 0.000000 0.000000 0.000000 -1.218647 -2.282002 -0.171549 -0.680162 -2.219583 -0.874025 -0.858547 -3.093196 -1.762078 0.000000 0.000000 0.000000 -0.481215 -1.382524 -2.078805 -0.901660 5.743086 1.163028 -0.720578 2.486345 -0.167466 0.000000 0.000000 0.000000 0.560503 -3.284931 0.701192 0.740775 5.493879 0.205015 0.693346 4.042716 0.431506 0.000000 0.000000 0.000000 
27.948000 -9.405000 1150.704960 -3.007591 3.287850 0.799475 0.578625 4.942503 0.316791 0.444891 -0.996403 -0.056201 0.474161 0.946953 -0.025326 0.066842 3.675021 -0.281228 0.000000 0.000000 0.000000 1.305804 -2.687768 -0.208118 0.223036 -2.576534 -1.129908 0.510036 -3.357004 0.663467 0.000000 0.000000 0.000000 -1.230122 -2.279130 -0.166491 -0.667666 -2.211631 -0.846709 -0.821147 -2.961182 -1.677405 0.000000 0.000000 0.000000 -0.500187 -1.471187 -2.152234 -0.940766 6.063578 1.171005 -0.751019 2.519095 -0.179078 0.000000 0.000000 0.000000 0.527853 -3.310209 0.620776 0.709599 5.678431 0.235538 0.664117 4.094237 0.418890 0.000000 0.000000 0.000000 
29.784000 -8.651000 1151.036010 -2.942579 3.277072 0.843781 0.556781 5.082534 0.207881 0.420727 -1.030316 -0.047873 0.450263 0.979504 -0.027715 0.045914 3.673622 -0.204084 0.000000 0.000000 0.000000 1.343922 -2.728162 -0.101265 0.237159 -2.614113 -1.035094 0.418084 -3.021280 0.323107 0.000000 0.000000 0.000000 -1.237502 -2.260980 -0.156157 -0.650205 -2.188302 -0.817226 -0.775888 -2.799387 -1.577788 0.000000 0.000000 0.000000 -0.522449 -1.591104 -2.262746 -0.991068 6.483998 1.206082 -0.787161 2.519737 -0.195370 0.000000 0.000000 0.000000 0.476301 -3.304979 0.536520 0.659382 5.841614 0.243460 0.614746 4.166860 0.397312 0.000000 0.000000 0.000000 
31.583000 -7.853000 1151.386960 -2.874914 3.246562 0.885797 0.529109 5.235341 0.092837 0.389041 -1.063210 -0.032875 0.417918 1.011218 -0.039069 0.027933 3.681609 -0.137443 0.000000 0.000000 0.000000 1.362807 -2.749704 -0.023821 0.251374 -2.632113 -0.915066 0.338761 -2.744330 0.019220 0.000000 0.000000 0.000000 -1.251703 -2.237240 -0.139720 -0.629871 -2.157772 -0.785854 -0.725646 -2.622297 -1.464947 0.000000 0.000000 0.000000 -0.514701 -1.860622 -2.444661 -1.038083 7.222864 1.353293 -0.802320 2.445701 -0.206750 0.000000 0.000000 0.000000 0.429968 -3.289736 0.451888 0.615186 6.017415 0.248532 0.571139 4.255711 0.378886 0.000000 0.000000 0.000000 
33.333000 -6.939000 1151.793950 -2.783169 3.194129 0.939130 0.490449 5.408251 -0.051006 0.344465 -1.098890 0.014657 0.370100 1.045339 -0.067638 0.018686 3.698758 -0.102652 0.000000 0.000000 0.000000 1.347949 -2.749469 0.006680 0.267110 -2.628150 -0.758234 0.277198 -2.542867 -0.227707 0.000000 0.000000 0.000000 -1.282213 -2.210223 -0.122954 -0.606794 -2.120536 -0.753977 -0.670014 -2.429358 -1.337080 0.000000 0.000000 0.000000 -0.477336 -2.279215 -2.735351 -1.084379 8.290446 1.646219 -0.798262 2.310022 -0.213111 0.000000 0.000000 0.000000 0.395304 -3.275191 0.330765 0.582709 6.217945 0.275034 0.541718 4.384450 0.368211 0.000000 0.000000 0.000000 
35.046000 -5.980000 1152.219970 -2.686610 3.119552 1.000647 0.446586 5.599507 -0.221961 0.291032 -1.137252 0.079672 0.311728 1.079069 -0.105206 0.012160 3.725224 -0.077396 0.000000 0.000000 0.000000 1.313015 -2.729707 0.007753 0.282839 -2.604079 -0.576106 0.228501 -2.401749 -0.438143 0.000000 0.000000 0.000000 -1.320707 -2.177612 -0.099881 -0.580774 -2.075901 -0.720404 -0.609343 -2.220545 -1.196588 0.000000 0.000000 0.000000 -0.405848 -2.839213 -3.113097 -1.121572 9.663824 2.056474 -0.771451 2.140454 -0.210996 0.000000 0.000000 0.000000 0.365143 -3.247294 0.195695 0.555710 6.428981 0.302122 0.518462 4.535910 0.361040 0.000000 0.000000 0.000000 
